<svg xmlns="http://www.w3.org/2000/svg" width="250" height="250" viewBox="0 0 250 250" fill="none">
<path d="M 159.28,226.39 H 11.93 C 7.78,226.39 6.24,221.31 8.63,218.23 L 69.51,124.71 L 9.71,30.63 C 7.62,27.41 9.88,22.5 13.74,22.5 H 159.11 C 162.78,22.5 163.82,25.88 163.82,28.16 V 68.71 C 163.82,72.51 160.74,74.39 158.47,74.39 H 135.66 C 132.29,74.39 129.74,72.42 129.74,68.71 V 56.21 H 65.46 L 107.29,121.61 C 108.74,123.97 108.32,126.88 106.71,128.85 L 64.09,193.79 H 130.07 V 180.72 C 130.07,176.83 132.79,174.86 135.15,174.86 H 158.72 C 162.23,174.86 163.82,177.86 163.82,180.72 V 221.43 C 163.82,224.98 161.73,226.39 159.28,226.39 Z M 21.44,215.97 H 152.95 V 185.11 H 140.57 V 198.68 C 140.57,202.39 138.02,203.97 135.41,203.97 H 54.91 C 50.03,203.97 48.34,199.56 50.35,196.26 L 96.81,124.71 L 51.31,54.16 C 49.22,50.86 51.06,46.37 55.52,46.37 H 135.15 C 138.82,46.37 140.24,49.36 140.24,51.64 V 64.14 H 152.87 V 33.41 H 23.37 L 80.51,122.02 C 82.11,124.54 81.78,127.31 80.26,129.44 L 21.44,215.97 Z" fill="url(#paint0_linear_137_100)"/>
<path d="M 237.78,106.91 H 209.09 V 79.09 C 209.09,75.46 206.54,73.58 204.27,73.58 H 182.05 C 178.38,73.58 176.19,75.79 176.19,79.42 V 106.91 H 148.28 C 144.61,106.91 143.11,109.99 143.11,112.85 V 134.41 C 143.11,137.71 145.21,139.76 147.76,139.76 H 176.19 V 168.16 C 176.19,171.46 178.74,172.96 181.21,172.96 H 203.94 C 207.61,172.96 209.09,170.28 209.09,167.51 V 139.76 H 237.7 C 241.37,139.76 242.5,136.54 242.5,134.26 V 112.45 C 242.5,108.74 240.23,106.91 237.78,106.91 Z M 232.72,129.34 H 204.27 C 200.6,129.34 199.12,132.72 199.12,135 V 163.07 H 186.91 V 134.41 C 186.91,130.94 184.64,129.34 182.26,129.34 H 153.41 V 117.41 H 181.84 C 185.51,117.41 186.91,114.64 186.91,112.12 V 84.46 H 199.12 V 112.12 C 199.12,115.12 201.21,117.41 204.11,117.41 H 232.72 V 129.34 Z" fill="url(#paint1_linear_137_100)"/>
<defs>
<linearGradient id="paint0_linear_137_100" x1="85.1588" y1="22.5" x2="85.1588" y2="226.39" gradientUnits="userSpaceOnUse">
<stop stop-color="#F03B25"/>
<stop offset="1" stop-color="#E83A25"/>
</linearGradient>
<linearGradient id="paint1_linear_137_100" x1="192.807" y1="73.5771" x2="192.807" y2="172.959" gradientUnits="userSpaceOnUse">
<stop stop-color="#F03B25"/>
<stop offset="1" stop-color="#E83A25"/>
</linearGradient>
</defs>
</svg>